<svg xmlns="http://www.w3.org/2000/svg" width="1440" height="870" viewBox="0 0 1440 870">
<defs><linearGradient id="wall" x2="1" y2="1"><stop stop-color="#413157"/><stop offset=".6" stop-color="#212342"/><stop offset="1" stop-color="#5b4d74"/></linearGradient></defs>
<rect width="1440" height="870" fill="url(#wall)"/><circle cx="1030" cy="590" r="385" fill="#8d6c92" opacity=".2"/><rect width="1440" height="25" fill="#080c1a" opacity=".4"/>
<g font-family="sans-serif" fill="#f1f5ff" font-size="13"><text x="24" y="18">●  Notes   File   Edit   View</text><text x="1300" y="18">9:41</text></g>
<rect x="154" y="100" width="1132" height="665" rx="15" fill="#1b202c"/><rect x="154" y="100" width="225" height="665" rx="15" fill="#222835"/><g><circle cx="180" cy="125" r="7" fill="#f47770"/><circle cx="203" cy="125" r="7" fill="#e9be55"/><circle cx="226" cy="125" r="7" fill="#69bf75"/></g>
<g font-family="sans-serif" fill="#a4afc4" font-size="17"><text x="185" y="194">WORKSPACE</text><text x="185" y="247">All notes</text><text x="185" y="289">Projects</text><text x="185" y="331">Ideas</text></g>
<rect x="170" y="365" width="192" height="40" rx="6" fill="#385274"/><text x="185" y="391" font-family="sans-serif" fill="#e2ecff" font-size="17">Today</text>
<g font-family="sans-serif" fill="#eef2fb"><text x="443" y="209" font-size="16" fill="#81a9e5" letter-spacing="3">KEEP THE FLOW</text><text x="443" y="289" font-size="52" font-weight="700">Build something great.</text><text x="443" y="342" font-size="23" fill="#9caac0">One workspace. A little less friction.</text></g>
<g stroke="#6985ac" fill="none" stroke-width="2"><rect x="445" y="406" width="24" height="24" rx="6"/><rect x="445" y="469" width="24" height="24" rx="6"/><rect x="445" y="532" width="24" height="24" rx="6"/></g>
<g font-family="sans-serif" font-size="24" fill="#c5cfdf"><text x="494" y="427">Find your next idea</text><text x="494" y="490">Keep everything connected</text><text x="494" y="553">Make it yours</text></g>
<path d="M450 418L456 424L465 411" fill="none" stroke="#79c2a2" stroke-width="3"/>
<rect x="444" y="606" width="700" height="2" fill="#303949"/>
<text x="443" y="666" font-family="sans-serif" font-size="18" fill="#738099">Room to think. Freedom to move.</text>
</svg>
